<svg width="26" height="27" viewBox="0 0 26 27" fill="none" xmlns="http://www.w3.org/2000/svg">
<path d="M3.12021 15.06C2.94688 15.06 2.81687 15.1033 2.73021 15.19C2.64354 15.2767 2.60021 15.4067 2.60021 15.58V25.3733C2.60021 25.5467 2.64354 25.6911 2.73021 25.8067C2.81687 25.9222 2.94688 25.98 3.12021 25.98H22.6202C22.7358 25.98 22.8513 25.9222 22.9669 25.8067C23.0824 25.6911 23.1402 25.5467 23.1402 25.3733V17.4C23.1402 17.2267 23.0824 17.0967 22.9669 17.01C22.8513 16.9233 22.7213 16.88 22.5769 16.88C22.4324 16.88 22.3169 16.9233 22.2302 17.01C22.1435 17.0967 22.1002 17.2267 22.1002 17.4V24.8533H3.64021V15.58C3.64021 15.4067 3.58243 15.2767 3.46688 15.19C3.35132 15.1033 3.23576 15.06 3.12021 15.06ZM5.28687 17.3133C5.11354 17.3133 4.98354 17.3567 4.89687 17.4433C4.81021 17.53 4.76687 17.66 4.76687 17.8333V25.3733C4.76687 25.5467 4.81021 25.6911 4.89687 25.8067C4.98354 25.9222 5.11354 25.98 5.28687 25.98H11.2669C11.3824 25.98 11.498 25.9222 11.6135 25.8067C11.7291 25.6911 11.7869 25.5467 11.7869 25.3733V19.48C11.7869 19.3645 11.7291 19.2489 11.6135 19.1333C11.498 19.0178 11.368 18.96 11.2235 18.96C11.0791 18.96 10.9491 19.0178 10.8335 19.1333C10.718 19.2489 10.6602 19.3645 10.6602 19.48V24.8533H5.80687V18.3533H11.2669C11.3824 18.3533 11.498 18.31 11.6135 18.2233C11.7291 18.1367 11.7869 18.0067 11.7869 17.8333C11.7869 17.66 11.7291 17.53 11.6135 17.4433C11.498 17.3567 11.3824 17.3133 11.2669 17.3133H5.28687ZM13.9535 17.3133C13.7802 17.3133 13.6502 17.3567 13.5635 17.4433C13.4769 17.53 13.4335 17.66 13.4335 17.8333V22.6867C13.4335 22.86 13.4769 22.99 13.5635 23.0767C13.6502 23.1633 13.7802 23.2067 13.9535 23.2067H20.4535C20.5691 23.2067 20.6847 23.1633 20.8002 23.0767C20.9158 22.99 20.9735 22.86 20.9735 22.6867V19.48C20.9735 19.3645 20.9158 19.2489 20.8002 19.1333C20.6847 19.0178 20.5547 18.96 20.4102 18.96C20.2658 18.96 20.1502 19.0178 20.0635 19.1333C19.9769 19.2489 19.9335 19.3645 19.9335 19.48V22.1667H14.4735V18.3533H20.4535C20.5691 18.3533 20.6847 18.31 20.8002 18.2233C20.9158 18.1367 20.9735 18.0067 20.9735 17.8333C20.9735 17.66 20.9158 17.53 20.8002 17.4433C20.6847 17.3567 20.5691 17.3133 20.4535 17.3133H13.9535ZM12.8269 11.5067C12.1913 11.5067 11.6569 11.7378 11.2235 12.2C10.7902 12.6622 10.5735 13.2111 10.5735 13.8467C10.5735 14.4822 10.7902 15.0311 11.2235 15.4933C11.6569 15.9556 12.1913 16.1867 12.8269 16.1867C13.4624 16.1867 14.0113 15.9556 14.4735 15.4933C14.9358 15.0311 15.1669 14.4822 15.1669 13.8467C15.1669 13.6733 15.1091 13.5433 14.9935 13.4567C14.878 13.37 14.748 13.3267 14.6035 13.3267C14.4591 13.3267 14.3291 13.37 14.2135 13.4567C14.098 13.5433 14.0402 13.6733 14.0402 13.8467C14.0402 14.1933 13.9247 14.4822 13.6935 14.7133C13.4624 14.9445 13.1735 15.06 12.8269 15.06C12.4802 15.06 12.1913 14.9445 11.9602 14.7133C11.7291 14.4822 11.6135 14.1933 11.6135 13.8467C11.6135 13.5 11.7291 13.2111 11.9602 12.98C12.1913 12.7489 12.4802 12.6333 12.8269 12.6333C13.1735 12.6333 13.4624 12.7489 13.6935 12.98C13.8091 13.0956 13.9391 13.1533 14.0835 13.1533C14.228 13.1533 14.358 13.0956 14.4735 12.98C14.5891 12.8645 14.6469 12.7345 14.6469 12.59C14.6469 12.4456 14.5891 12.3156 14.4735 12.2C14.0113 11.7378 13.4624 11.5067 12.8269 11.5067ZM16.3802 19.22C16.1491 19.22 16.0047 19.3356 15.9469 19.5667L15.3402 20.4333C15.2824 20.6067 15.268 20.7656 15.2969 20.91C15.3258 21.0545 15.4124 21.1556 15.5569 21.2133C15.7013 21.2711 15.8458 21.2856 15.9902 21.2567C16.1347 21.2278 16.2358 21.1556 16.2935 21.04L16.8135 20.0867C16.9291 19.9711 16.958 19.8411 16.9002 19.6967C16.8424 19.5522 16.7702 19.4511 16.6835 19.3933C16.5969 19.3356 16.4958 19.2778 16.3802 19.22ZM18.5469 19.22C18.3158 19.22 18.1713 19.3356 18.1135 19.5667L17.5069 20.4333C17.4491 20.6067 17.4347 20.7656 17.4635 20.91C17.4924 21.0545 17.5791 21.1556 17.7235 21.2133C17.868 21.2711 18.0124 21.2856 18.1569 21.2567C18.3013 21.2278 18.4024 21.1556 18.4602 21.04L18.9802 20.0867C19.0958 19.9711 19.1247 19.8411 19.0669 19.6967C19.0091 19.5522 18.9369 19.4511 18.8502 19.3933C18.7635 19.3356 18.6624 19.2778 18.5469 19.22ZM21.7535 1.02001C20.8291 1.02001 20.0202 1.36668 19.3269 2.06001C18.6335 2.75334 18.2869 3.59112 18.2869 4.57335C18.2869 5.55557 18.6335 6.3789 19.3269 7.04334C20.0202 7.70779 20.8435 8.04001 21.7969 8.04001C22.7502 8.04001 23.5735 7.70779 24.2669 7.04334C24.9602 6.3789 25.3069 5.55557 25.3069 4.57335C25.3069 3.59112 24.9602 2.75334 24.2669 2.06001C23.5735 1.36668 22.7358 1.02001 21.7535 1.02001ZM21.7535 2.14668C22.4469 2.14668 23.0391 2.37779 23.5302 2.84001C24.0213 3.30223 24.2669 3.88001 24.2669 4.57335C24.2669 5.26668 24.0213 5.84446 23.5302 6.30668C23.0391 6.7689 22.4613 7.00001 21.7969 7.00001C21.1324 7.00001 20.5547 6.7689 20.0635 6.30668C19.5724 5.84446 19.3269 5.26668 19.3269 4.57335C19.3269 3.88001 19.5724 3.30223 20.0635 2.84001C20.5547 2.37779 21.118 2.14668 21.7535 2.14668ZM3.20688 5.61334C3.09132 5.61334 2.97576 5.65668 2.86021 5.74335C2.74465 5.83001 2.68687 5.96001 2.68687 6.13334V12.2867C2.68687 12.4022 2.74465 12.5178 2.86021 12.6333C2.97576 12.7489 3.10576 12.8067 3.25021 12.8067C3.39465 12.8067 3.51021 12.7489 3.59687 12.6333C3.68354 12.5178 3.72688 12.4022 3.72688 12.2867V6.65335H5.89354V9.86001C5.89354 10.0333 5.95132 10.1778 6.06687 10.2933C6.18243 10.4089 6.31243 10.4667 6.45687 10.4667C6.60132 10.4667 6.73132 10.4089 6.84687 10.2933C6.96243 10.1778 7.02021 10.0333 7.02021 9.86001V6.13334C7.02021 5.96001 6.96243 5.83001 6.84687 5.74335C6.73132 5.65668 6.61576 5.61334 6.50021 5.61334H3.20688ZM2.16688 3.62001C1.99354 3.62001 1.8491 3.67779 1.73354 3.79334C1.61799 3.9089 1.56021 4.02446 1.56021 4.14001V6.13334C1.56021 6.2489 1.61799 6.36446 1.73354 6.48001C1.8491 6.59557 1.99354 6.65335 2.16688 6.65335H7.54021C7.71354 6.65335 7.84354 6.59557 7.93021 6.48001C8.01687 6.36446 8.06021 6.2489 8.06021 6.13334V4.14001C8.06021 4.02446 8.01687 3.9089 7.93021 3.79334C7.84354 3.67779 7.71354 3.62001 7.54021 3.62001H2.16688ZM2.68687 4.74668H7.02021V5.61334H2.68687V4.74668ZM7.80021 21.6467C7.80021 21.82 7.72799 21.9789 7.58354 22.1233C7.4391 22.2678 7.28021 22.34 7.10687 22.34C6.93354 22.34 6.77465 22.2678 6.63021 22.1233C6.48576 21.9789 6.41354 21.8056 6.41354 21.6033C6.41354 21.4011 6.48576 21.2422 6.63021 21.1267C6.77465 21.0111 6.93354 20.9533 7.10687 20.9533C7.28021 20.9533 7.4391 21.0111 7.58354 21.1267C7.72799 21.2422 7.80021 21.4156 7.80021 21.6467ZM12.7402 5.52668C12.4513 5.52668 12.1913 5.61334 11.9602 5.78668L1.12687 13.24C0.895764 13.4133 0.751319 13.6589 0.693542 13.9767C0.635764 14.2945 0.693542 14.5689 0.866875 14.8L1.47354 15.6667C1.64687 15.8978 1.87799 16.0422 2.16688 16.1C2.45576 16.1578 2.74465 16.1 3.03354 15.9267L12.8269 9.08001L22.7069 15.9267C22.938 16.1 23.2124 16.1578 23.5302 16.1C23.848 16.0422 24.0935 15.8978 24.2669 15.6667L24.8735 14.8C25.0469 14.5689 25.1047 14.2945 25.0469 13.9767C24.9891 13.6589 24.8447 13.4133 24.6135 13.24L13.7802 5.78668C13.4913 5.61334 13.1447 5.52668 12.7402 5.52668ZM12.8269 6.56668C12.9424 6.56668 13.058 6.59557 13.1735 6.65335L23.9202 14.1933L23.3135 15.06L13.1735 8.04001C12.9424 7.86668 12.7402 7.86668 12.5669 8.04001L2.34021 15.06L1.73354 14.1933L12.5669 6.65335C12.6247 6.59557 12.7113 6.56668 12.8269 6.56668Z" fill="#1A1A1A"/>
</svg>
