<svg width="26" height="26" viewBox="0 0 26 26" fill="none" xmlns="http://www.w3.org/2000/svg">
<g clip-path="url(#clip0_101_580)">
<path d="M1.03953 22.1867C0.923976 22.1867 0.80842 22.2445 0.692865 22.36C0.577309 22.4756 0.519531 22.5911 0.519531 22.7067V24.8733C0.519531 25.0467 0.577309 25.1911 0.692865 25.3067C0.80842 25.4222 0.923976 25.48 1.03953 25.48H20.0195C20.1929 25.48 20.3373 25.4222 20.4529 25.3067C20.5684 25.1911 20.5973 25.0467 20.5395 24.8733V22.7067C20.5395 22.5911 20.4962 22.4756 20.4095 22.36C20.3229 22.2445 20.1929 22.1867 20.0195 22.1867H1.03953ZM1.6462 23.3133H19.4995V24.3533H1.6462V23.3133ZM18.3729 12.48C18.2573 12.48 18.1418 12.5233 18.0262 12.61C17.9106 12.6967 17.8529 12.8267 17.8529 13V22.1867H3.2062V14.7333C3.26398 14.56 3.23509 14.43 3.11953 14.3433C3.00398 14.2567 2.87398 14.2133 2.72953 14.2133C2.58509 14.2133 2.45509 14.2567 2.33953 14.3433C2.22398 14.43 2.1662 14.56 2.1662 14.7333V22.7067C2.1662 22.88 2.22398 23.0245 2.33953 23.14C2.45509 23.2556 2.57064 23.3133 2.6862 23.3133H18.3729C18.5462 23.3133 18.6906 23.2556 18.8062 23.14C18.9218 23.0245 18.9795 22.88 18.9795 22.7067V13C18.9795 12.8267 18.9218 12.6967 18.8062 12.61C18.6906 12.5233 18.5462 12.48 18.3729 12.48ZM3.2062 6.50001C2.97509 6.50001 2.83064 6.61557 2.77286 6.84668L0.606198 12.8267C0.54842 13 0.562865 13.1589 0.649531 13.3033C0.736198 13.4478 0.866198 13.52 1.03953 13.52H20.0195C20.2506 13.52 20.4095 13.4478 20.4962 13.3033C20.5829 13.1589 20.5973 13 20.5395 12.8267L18.3729 6.84668C18.3151 6.61557 18.1418 6.50001 17.8529 6.50001H15.1662C14.9929 6.50001 14.8629 6.55779 14.7762 6.67334C14.6895 6.7889 14.6462 6.9189 14.6462 7.06334C14.6462 7.20779 14.6895 7.32335 14.7762 7.41001C14.8629 7.49668 14.9929 7.54001 15.1662 7.54001H17.5062L19.2395 12.48H1.81953L3.63953 7.54001H6.23953C6.35509 7.54001 6.47064 7.49668 6.5862 7.41001C6.70175 7.32335 6.75953 7.20779 6.75953 7.06334C6.75953 6.9189 6.70175 6.7889 6.5862 6.67334C6.47064 6.55779 6.35509 6.50001 6.23953 6.50001H3.2062ZM6.23953 4.59334C6.0662 4.59334 5.9362 4.65112 5.84953 4.76668C5.76286 4.88223 5.71953 5.02668 5.71953 5.20001V10.3133C5.71953 10.4289 5.76286 10.5445 5.84953 10.66C5.9362 10.7756 6.0662 10.8333 6.23953 10.8333H14.9062C15.0218 10.8333 15.1373 10.7756 15.2529 10.66C15.3684 10.5445 15.4262 10.4289 15.4262 10.3133V5.20001C15.4262 5.02668 15.3684 4.88223 15.2529 4.76668C15.1373 4.65112 15.0073 4.59334 14.8629 4.59334C14.7184 4.59334 14.6029 4.65112 14.5162 4.76668C14.4295 4.88223 14.3862 5.02668 14.3862 5.20001V9.70668H6.75953V5.20001C6.75953 5.02668 6.70175 4.88223 6.5862 4.76668C6.47064 4.65112 6.35509 4.59334 6.23953 4.59334ZM5.97953 0.520012C5.69064 0.520012 5.51731 0.664455 5.45953 0.953344L4.07286 5.02668C4.01509 5.20001 4.04398 5.3589 4.15953 5.50334C4.27509 5.64779 4.41953 5.72001 4.59286 5.72001H16.5529C16.7262 5.72001 16.8706 5.64779 16.9862 5.50334C17.1018 5.3589 17.1306 5.20001 17.0729 5.02668L15.6862 0.953344C15.6284 0.664455 15.4551 0.520012 15.1662 0.520012H5.97953ZM6.3262 1.64668H14.8195L15.7729 4.59334H5.37286L6.3262 1.64668ZM4.85286 16.2933C4.73731 16.2356 4.62175 16.2645 4.5062 16.38C4.39064 16.4956 4.33286 16.64 4.33286 16.8133V22.7067C4.33286 22.88 4.39064 23.0245 4.5062 23.14C4.62175 23.2556 4.73731 23.3133 4.85286 23.3133H9.53286C9.64842 23.3133 9.76398 23.2556 9.87953 23.14C9.99509 23.0245 10.0529 22.88 10.0529 22.7067V16.8133C10.0529 16.64 9.99509 16.51 9.87953 16.4233C9.76398 16.3367 9.64842 16.2933 9.53286 16.2933H4.85286ZM5.45953 17.3333H8.9262V22.1867H5.45953V17.3333ZM11.6995 16.2933C11.5262 16.2356 11.3818 16.2645 11.2662 16.38C11.1506 16.4956 11.0929 16.64 11.0929 16.8133V20.4533C11.0929 20.5689 11.1506 20.6845 11.2662 20.8C11.3818 20.9156 11.5262 20.9733 11.6995 20.9733H16.8129C16.9284 20.9733 17.044 20.9156 17.1595 20.8C17.2751 20.6845 17.3329 20.5689 17.3329 20.4533V18.6333C17.3329 18.46 17.2751 18.33 17.1595 18.2433C17.044 18.1567 16.914 18.1133 16.7695 18.1133C16.6251 18.1133 16.4951 18.1567 16.3795 18.2433C16.264 18.33 16.2062 18.46 16.2062 18.6333V19.9333H12.2195V17.3333H16.8129C16.9284 17.3333 17.044 17.2756 17.1595 17.16C17.2751 17.0445 17.3329 16.9145 17.3329 16.77C17.3329 16.6256 17.2751 16.51 17.1595 16.4233C17.044 16.3367 16.9284 16.2933 16.8129 16.2933H11.6995ZM8.6662 6.15335C8.49286 6.09557 8.36286 6.12446 8.2762 6.24001C8.18953 6.35557 8.1462 6.50001 8.1462 6.67334V8.84001C8.1462 8.95557 8.18953 9.07112 8.2762 9.18668C8.36286 9.30223 8.49286 9.36001 8.6662 9.36001H12.4795C12.5951 9.36001 12.7106 9.30223 12.8262 9.18668C12.9418 9.07112 12.9995 8.95557 12.9995 8.84001V6.67334C12.9995 6.50001 12.9418 6.35557 12.8262 6.24001C12.7106 6.12446 12.5951 6.09557 12.4795 6.15335H8.6662ZM9.1862 7.19334H11.9595V8.23335H9.1862V7.19334ZM22.1862 0.520012C21.3195 0.520012 20.5684 0.83779 19.9329 1.47334C19.2973 2.1089 18.9795 2.87446 18.9795 3.77001C18.9795 4.66557 19.2973 5.43112 19.9329 6.06668C20.5684 6.70223 21.334 7.02001 22.2295 7.02001C23.1251 7.02001 23.8906 6.70223 24.5262 6.06668C25.1618 5.43112 25.4795 4.66557 25.4795 3.77001C25.4795 2.87446 25.1618 2.1089 24.5262 1.47334C23.8906 0.83779 23.1106 0.520012 22.1862 0.520012ZM22.1862 1.64668C22.8218 1.64668 23.3418 1.8489 23.7462 2.25334C24.1506 2.65779 24.3529 3.16335 24.3529 3.77001C24.3529 4.37668 24.1506 4.89668 23.7462 5.33001C23.3418 5.76334 22.8362 5.98001 22.2295 5.98001C21.6229 5.98001 21.1029 5.76334 20.6695 5.33001C20.2362 4.89668 20.0195 4.37668 20.0195 3.77001C20.0195 3.16335 20.2362 2.65779 20.6695 2.25334C21.1029 1.8489 21.6084 1.64668 22.1862 1.64668ZM7.27953 19.76C7.27953 19.9333 7.22175 20.0778 7.1062 20.1933C6.99064 20.3089 6.86064 20.3667 6.7162 20.3667C6.57175 20.3667 6.44175 20.3089 6.3262 20.1933C6.21064 20.0778 6.15286 19.9333 6.15286 19.76C6.15286 19.5867 6.21064 19.4422 6.3262 19.3267C6.44175 19.2111 6.57175 19.1533 6.7162 19.1533C6.86064 19.1533 6.99064 19.2111 7.1062 19.3267C7.22175 19.4422 7.27953 19.5867 7.27953 19.76ZM13.6062 17.8533C13.3751 17.8533 13.2018 17.94 13.0862 18.1133L12.8262 18.5467C12.7106 18.72 12.6818 18.8789 12.7395 19.0233C12.7973 19.1678 12.884 19.2689 12.9995 19.3267C13.1151 19.3845 13.2451 19.3989 13.3895 19.37C13.534 19.3411 13.664 19.2689 13.7795 19.1533L14.0395 18.6333C14.0973 18.5178 14.1118 18.3878 14.0829 18.2433C14.054 18.0989 13.9818 17.9978 13.8662 17.94C13.7506 17.8822 13.664 17.8533 13.6062 17.8533ZM15.1662 17.8533C14.9929 17.8533 14.8484 17.94 14.7329 18.1133L14.4729 18.5467C14.3573 18.72 14.3284 18.8789 14.3862 19.0233C14.444 19.1678 14.5306 19.2689 14.6462 19.3267C14.7618 19.3845 14.8918 19.3989 15.0362 19.37C15.1806 19.3411 15.2818 19.2689 15.3395 19.1533L15.5995 18.6333C15.7151 18.5178 15.744 18.3878 15.6862 18.2433C15.6284 18.0989 15.5562 17.9978 15.4695 17.94C15.3829 17.8822 15.2818 17.8533 15.1662 17.8533Z" fill="#1A1A1A"/>
</g>
<defs>
<clipPath id="clip0_101_580">
<rect width="26" height="26" fill="white" transform="matrix(1 0 0 -1 0 26)"/>
</clipPath>
</defs>
</svg>
