<svg width="26" height="26" viewBox="0 0 26 26" fill="none" xmlns="http://www.w3.org/2000/svg">
<path d="M13.0867 17.7667C13.26 17.7667 13.39 17.7233 13.4767 17.6367C13.5633 17.55 13.6067 17.42 13.6067 17.2467V14.9067C13.6067 14.6756 13.52 14.5167 13.3467 14.43C13.1733 14.3433 13 14.3433 12.8267 14.43C12.6533 14.5167 12.5667 14.6756 12.5667 14.9067V17.2467C12.5667 17.42 12.6245 17.55 12.74 17.6367C12.8556 17.7233 12.9711 17.7667 13.0867 17.7667ZM13.0867 7.10666C13.26 7.10666 13.39 7.06333 13.4767 6.97666C13.5633 6.89 13.6067 6.78889 13.6067 6.67333V4.24666C13.6067 4.07333 13.52 3.94333 13.3467 3.85666C13.1733 3.77 13 3.77 12.8267 3.85666C12.6533 3.94333 12.5667 4.07333 12.5667 4.24666V6.67333C12.5667 6.78889 12.6245 6.89 12.74 6.97666C12.8556 7.06333 12.9711 7.10666 13.0867 7.10666ZM13.0867 12.48C13.26 12.48 13.39 12.4222 13.4767 12.3067C13.5633 12.1911 13.6067 12.0756 13.6067 11.96V9.62C13.6067 9.44666 13.5633 9.31666 13.4767 9.23C13.39 9.14333 13.2745 9.1 13.13 9.1C12.9856 9.1 12.8556 9.14333 12.74 9.23C12.6245 9.31666 12.5667 9.44666 12.5667 9.62V11.96C12.5667 12.0756 12.6245 12.1911 12.74 12.3067C12.8556 12.4222 12.9711 12.48 13.0867 12.48ZM16.64 7.10666C16.7556 7.10666 16.8711 7.06333 16.9867 6.97666C17.1022 6.89 17.16 6.78889 17.16 6.67333V4.24666C17.16 4.13111 17.1022 4.01555 16.9867 3.9C16.8711 3.78444 16.7556 3.72666 16.64 3.72666C16.5245 3.72666 16.4089 3.78444 16.2933 3.9C16.1778 4.01555 16.12 4.13111 16.12 4.24666V6.67333C16.12 6.78889 16.1778 6.89 16.2933 6.97666C16.4089 7.06333 16.5245 7.10666 16.64 7.10666ZM16.64 12.48C16.7556 12.48 16.8711 12.4222 16.9867 12.3067C17.1022 12.1911 17.16 12.0756 17.16 11.96V9.62C17.16 9.44666 17.1022 9.31666 16.9867 9.23C16.8711 9.14333 16.7556 9.1 16.64 9.1C16.5245 9.1 16.4089 9.14333 16.2933 9.23C16.1778 9.31666 16.12 9.44666 16.12 9.62V11.96C16.12 12.0756 16.1778 12.1911 16.2933 12.3067C16.4089 12.4222 16.5245 12.48 16.64 12.48ZM16.64 17.7667C16.7556 17.7667 16.8711 17.7233 16.9867 17.6367C17.1022 17.55 17.16 17.42 17.16 17.2467V14.9067C17.16 14.7333 17.1022 14.6033 16.9867 14.5167C16.8711 14.43 16.7556 14.3867 16.64 14.3867C16.5245 14.3867 16.4089 14.43 16.2933 14.5167C16.1778 14.6033 16.12 14.7333 16.12 14.9067V17.2467C16.12 17.42 16.1778 17.55 16.2933 17.6367C16.4089 17.7233 16.5245 17.7667 16.64 17.7667ZM22.5333 19.6733H22.9667C23.0822 19.6733 23.1833 19.63 23.27 19.5433C23.3567 19.4567 23.4 19.3411 23.4 19.1967C23.4 19.0522 23.3567 18.9367 23.27 18.85C23.1833 18.7633 23.0822 18.72 22.9667 18.72H22.5333C22.36 18.72 22.23 18.7633 22.1433 18.85C22.0567 18.9367 22.0133 19.0522 22.0133 19.1967C22.0133 19.3411 22.0567 19.4567 22.1433 19.5433C22.23 19.63 22.36 19.6733 22.5333 19.6733ZM22.5333 16.8133H22.9667C23.0822 16.8133 23.1833 16.77 23.27 16.6833C23.3567 16.5967 23.4 16.4811 23.4 16.3367C23.4 16.1922 23.3567 16.0622 23.27 15.9467C23.1833 15.8311 23.0822 15.7733 22.9667 15.7733H22.5333C22.36 15.7733 22.23 15.8311 22.1433 15.9467C22.0567 16.0622 22.0133 16.1922 22.0133 16.3367C22.0133 16.4811 22.0567 16.5967 22.1433 16.6833C22.23 16.77 22.36 16.8133 22.5333 16.8133ZM22.5333 22.5333H22.9667C23.0822 22.5333 23.1833 22.4756 23.27 22.36C23.3567 22.2444 23.4 22.1289 23.4 22.0133C23.4 21.8978 23.3567 21.7822 23.27 21.6667C23.1833 21.5511 23.0822 21.4933 22.9667 21.4933H22.5333C22.36 21.4933 22.23 21.5511 22.1433 21.6667C22.0567 21.7822 22.0133 21.8978 22.0133 22.0133C22.0133 22.1289 22.0567 22.2444 22.1433 22.36C22.23 22.4756 22.36 22.5333 22.5333 22.5333ZM7.10668 13.9533H7.54001C7.65557 13.9533 7.75668 13.91 7.84335 13.8233C7.93001 13.7367 7.97335 13.6211 7.97335 13.4767C7.97335 13.3322 7.93001 13.2167 7.84335 13.13C7.75668 13.0433 7.65557 13 7.54001 13H7.10668C6.93335 13 6.80335 13.0433 6.71668 13.13C6.63001 13.2167 6.58668 13.3322 6.58668 13.4767C6.58668 13.6211 6.63001 13.7367 6.71668 13.8233C6.80335 13.91 6.93335 13.9533 7.10668 13.9533ZM7.10668 11.0933H7.54001C7.65557 11.0933 7.75668 11.05 7.84335 10.9633C7.93001 10.8767 7.97335 10.7611 7.97335 10.6167C7.97335 10.4722 7.93001 10.3567 7.84335 10.27C7.75668 10.1833 7.65557 10.14 7.54001 10.14H7.10668C6.93335 10.14 6.80335 10.1833 6.71668 10.27C6.63001 10.3567 6.58668 10.4722 6.58668 10.6167C6.58668 10.7611 6.63001 10.8767 6.71668 10.9633C6.80335 11.05 6.93335 11.0933 7.10668 11.0933ZM7.10668 16.8133H7.54001C7.65557 16.8133 7.75668 16.77 7.84335 16.6833C7.93001 16.5967 7.97335 16.4811 7.97335 16.3367C7.97335 16.1922 7.93001 16.0622 7.84335 15.9467C7.75668 15.8311 7.65557 15.7733 7.54001 15.7733H7.10668C6.87557 15.7733 6.71668 15.86 6.63001 16.0333C6.54335 16.2067 6.54335 16.38 6.63001 16.5533C6.71668 16.7267 6.87557 16.8133 7.10668 16.8133ZM25.3067 11.7H20.6267V0.953331C20.6267 0.779998 20.5833 0.649996 20.4967 0.56333C20.41 0.476663 20.28 0.433331 20.1067 0.433331H9.62001C9.50446 0.433331 9.3889 0.491107 9.27335 0.606663C9.15779 0.722218 9.10001 0.837775 9.10001 0.953331V7.19333H4.94001C4.82446 7.19333 4.7089 7.23666 4.59335 7.32333C4.47779 7.41 4.42001 7.54 4.42001 7.71333V13.8667C4.42001 14.04 4.47779 14.17 4.59335 14.2567C4.7089 14.3433 4.8389 14.3867 4.98335 14.3867C5.12779 14.3867 5.24335 14.3433 5.33001 14.2567C5.41668 14.17 5.46001 14.04 5.46001 13.8667V8.14666H9.10001V24.8733H5.46001C5.28668 24.8733 5.15668 24.9311 5.07001 25.0467C4.98335 25.1622 4.94001 25.2922 4.94001 25.4367C4.94001 25.5811 4.98335 25.6967 5.07001 25.7833C5.15668 25.87 5.28668 25.9133 5.46001 25.9133H23.5733C24.2089 25.9133 24.7433 25.6967 25.1767 25.2633C25.61 24.83 25.8267 24.3244 25.8267 23.7467V12.22C25.8267 12.1044 25.7689 11.9889 25.6533 11.8733C25.5378 11.7578 25.4222 11.7 25.3067 11.7ZM13.6067 24.8733V20.9733H16.12V24.8733H13.6067ZM19.5867 24.8733H17.16V20.4533C17.16 20.28 17.1022 20.15 16.9867 20.0633C16.8711 19.9767 16.7556 19.9333 16.64 19.9333H13.0867C12.9711 19.9333 12.8556 19.9767 12.74 20.0633C12.6245 20.15 12.5667 20.28 12.5667 20.4533V24.8733H10.14V1.38666H19.5867V24.8733ZM24.7867 23.7467C24.7867 24.0356 24.6711 24.31 24.44 24.57C24.2089 24.83 23.92 24.96 23.5733 24.96H20.6267V12.74H24.7867V23.7467ZM6.32668 18.98C6.32668 18.1133 5.89335 17.2756 5.02668 16.4667C4.56446 16.0044 4.07335 15.6289 3.55335 15.34C3.43779 15.2822 3.29335 15.2822 3.12001 15.34C2.65779 15.6289 2.16668 16.0044 1.64668 16.4667C0.780013 17.2756 0.34668 18.1278 0.34668 19.0233C0.34668 19.9189 0.577791 20.7133 1.04001 21.4067C1.50224 22.1 2.1089 22.5044 2.86001 22.62V25.3933C2.86001 25.5667 2.90335 25.6967 2.99001 25.7833C3.07668 25.87 3.19224 25.9133 3.33668 25.9133C3.48112 25.9133 3.59668 25.87 3.68335 25.7833C3.77001 25.6967 3.81335 25.5667 3.81335 25.3933V22.62C4.56446 22.5044 5.17112 22.1 5.63335 21.4067C6.09557 20.7133 6.32668 19.9044 6.32668 18.98ZM1.30001 18.98C1.30001 18.5178 1.56001 17.9978 2.08001 17.42C2.42668 17.0733 2.86001 16.7267 3.38001 16.38C3.84224 16.7267 4.24668 17.0733 4.59335 17.42C5.11335 17.9978 5.37335 18.5178 5.37335 18.98C5.37335 19.6156 5.2289 20.1789 4.94001 20.67C4.65112 21.1611 4.27557 21.4644 3.81335 21.58V20.4533C3.81335 20.28 3.77001 20.15 3.68335 20.0633C3.59668 19.9767 3.48112 19.9333 3.33668 19.9333C3.19224 19.9333 3.07668 19.9767 2.99001 20.0633C2.90335 20.15 2.86001 20.28 2.86001 20.4533V21.58C2.39779 21.4644 2.02224 21.1611 1.73335 20.67C1.44446 20.1789 1.30001 19.6156 1.30001 18.98Z" fill="#1A1A1A"/>
</svg>
