<svg width="80" height="81" viewBox="0 0 80 81" fill="none" xmlns="http://www.w3.org/2000/svg">
<path d="M39.9998 69.7001C56.1265 69.7001 69.1998 56.6268 69.1998 40.5C69.1998 24.3733 56.1265 11.3 39.9998 11.3C23.8731 11.3 10.7998 24.3733 10.7998 40.5C10.7998 56.6268 23.8731 69.7001 39.9998 69.7001Z" fill="white"/>
<path d="M7.52344 49.1473C7.52344 49.1473 21.205 40.3217 35.985 42.8313C49.0666 45.0529 50.9698 43.3817 57.1938 40.6809C61.389 38.8609 62.5698 43.2865 62.0514 44.7113" stroke="#1F4B43" stroke-miterlimit="10" stroke-linecap="round" stroke-linejoin="round"/>
<path d="M64.7522 51.0664C68.0266 46.688 63.257 43.7608 60.9546 45.1064C60.9546 45.1064 53.2186 49.1304 47.9482 49.6864" stroke="#1F4B43" stroke-miterlimit="10" stroke-linecap="round" stroke-linejoin="round"/>
<path d="M49.009 55.4976C49.009 55.4976 55.225 54.704 60.0962 51.608C64.833 48.5976 69.3706 53.7856 64.201 57.5608C59.461 61.0224 53.629 63.7416 37.6298 66.028C22.7106 68.16 19.8218 70.1696 17.585 71.6976" stroke="#1F4B43" stroke-miterlimit="10" stroke-linecap="round" stroke-linejoin="round"/>
<path d="M24.5986 48.4705C24.5986 48.4705 27.8602 48.0697 32.0146 51.2961C34.8002 53.1569 36.7378 52.6465 38.7498 51.6577C42.4762 49.8257 46.6874 54.7857 40.8258 58.8569C34.9642 62.9289 26.201 63.8137 26.201 63.8137" stroke="#1F4B43" stroke-miterlimit="10" stroke-linecap="round" stroke-linejoin="round"/>
<path d="M20.6133 20.7807L39.5333 6.02393L59.0133 20.7807" stroke="#1F4B43" stroke-miterlimit="10" stroke-linecap="round" stroke-linejoin="round"/>
<path d="M55.2401 18.2024V37.0448H24.3857V18.2024" stroke="#1F4B43" stroke-miterlimit="10" stroke-linecap="round" stroke-linejoin="round"/>
<path d="M36.8261 18.9255H30.6221V27.2743H36.8261V18.9255Z" stroke="#1F4B43" stroke-miterlimit="10" stroke-linecap="round" stroke-linejoin="round"/>
<path d="M50.1107 24.8999H43.2939V36.9255H50.1107V24.8999Z" stroke="#1F4B43" stroke-miterlimit="10" stroke-linecap="round" stroke-linejoin="round"/>
<path d="M30.6221 21.7217H36.8261" stroke="#1F4B43" stroke-miterlimit="10" stroke-linecap="round" stroke-linejoin="round"/>
</svg>
